<svg xmlns="http://www.w3.org/2000/svg" width="1200" height="630" viewBox="0 0 1200 630">
  <defs>
    <radialGradient id="bg" cx="20%" cy="0%" r="90%"><stop stop-color="#153c31"/><stop offset=".48" stop-color="#07110f"/></radialGradient>
    <linearGradient id="line" x1="0" y1="0" x2="1" y2="0"><stop stop-color="#4fdca5"/><stop offset="1" stop-color="#b8ffdf"/></linearGradient>
  </defs>
  <rect width="1200" height="630" rx="30" fill="url(#bg)"/>
  <rect x="38" y="38" width="1124" height="554" rx="24" fill="#0a1714" fill-opacity=".76" stroke="#29433b"/>
  <rect x="78" y="78" width="64" height="64" rx="18" fill="#14332a" stroke="#3f8a70"/>
  <text x="110" y="121" text-anchor="middle" fill="#77f2c1" font-size="30" font-weight="800" font-family="Arial,sans-serif">M</text>
  <text x="164" y="109" fill="#edf6f2" font-size="34" font-weight="800" font-family="Arial,sans-serif">MarketScope</text>
  <text x="164" y="137" fill="#82918d" font-size="18" font-family="Arial,sans-serif">Surveillance consolidée</text>
  <text x="78" y="231" fill="#77f2c1" font-size="18" font-weight="700" letter-spacing="4" font-family="Arial,sans-serif">VOTRE MARCHÉ, EN UN COUP D’ŒIL</text>
  <text x="78" y="294" fill="#edf6f2" font-size="50" font-weight="800" font-family="Arial,sans-serif">287 instruments. 25 listes.</text>
  <text x="78" y="338" fill="#a9b8b3" font-size="24" font-family="Arial,sans-serif">Actions · ETF · Crypto · Matières premières</text>
  <g transform="translate(78 402)">
    <rect width="250" height="112" rx="18" fill="#0e211c" stroke="#25443a"/><text x="24" y="35" fill="#82918d" font-size="15" letter-spacing="2" font-family="Arial,sans-serif">FILTRER</text><text x="24" y="76" fill="#edf6f2" font-size="25" font-weight="700" font-family="Arial,sans-serif">Listes + tags</text>
    <rect x="270" width="250" height="112" rx="18" fill="#0e211c" stroke="#25443a"/><text x="294" y="35" fill="#82918d" font-size="15" letter-spacing="2" font-family="Arial,sans-serif">ANALYSER</text><text x="294" y="76" fill="#edf6f2" font-size="25" font-weight="700" font-family="Arial,sans-serif">RSI · VWAP</text>
    <rect x="540" width="250" height="112" rx="18" fill="#0e211c" stroke="#25443a"/><text x="564" y="35" fill="#82918d" font-size="15" letter-spacing="2" font-family="Arial,sans-serif">SURVEILLER</text><text x="564" y="76" fill="#edf6f2" font-size="25" font-weight="700" font-family="Arial,sans-serif">Alertes TTL</text>
  </g>
  <path d="M880 420l38-62 42 22 45-92 46 35 54-118" fill="none" stroke="url(#line)" stroke-width="8" stroke-linecap="round" stroke-linejoin="round"/>
  <circle cx="1105" cy="205" r="10" fill="#b8ffdf"/>
</svg>
